<svg width="44" height="44" viewBox="0 0 44 44" fill="none" xmlns="http://www.w3.org/2000/svg">
<path fill-rule="evenodd" clip-rule="evenodd" d="M18.3482 3.96802C18.4478 3.46948 18.7171 3.02083 19.1101 2.69837C19.5032 2.37591 19.9958 2.19953 20.5042 2.19922H23.4962C24.0046 2.19953 24.4972 2.37591 24.8903 2.69837C25.2833 3.02083 25.5525 3.46948 25.6522 3.96802L26.3012 7.20862C27.3946 7.52542 28.4374 7.96102 29.4164 8.50002L32.1664 6.66522C32.5896 6.38301 33.0976 6.25618 33.6038 6.30632C34.11 6.35646 34.5832 6.58047 34.9428 6.94022L37.0592 9.05662C37.4189 9.41626 37.643 9.88945 37.6931 10.3957C37.7432 10.9019 37.6164 11.4098 37.3342 11.833L35.4994 14.583C36.0384 15.562 36.474 16.6048 36.7908 17.6982L40.0314 18.345C40.5299 18.4447 40.9786 18.7139 41.301 19.107C41.6235 19.5 41.7999 19.9926 41.8002 20.501V23.4952C41.7999 24.0036 41.6235 24.4962 41.301 24.8893C40.9786 25.2823 40.5299 25.5516 40.0314 25.6512L36.7908 26.3002C36.4765 27.3831 36.0434 28.4278 35.4994 29.4154L37.3342 32.1654C37.6164 32.5886 37.7432 33.0966 37.6931 33.6028C37.643 34.109 37.4189 34.5822 37.0592 34.9418L34.9428 37.0582C34.5832 37.418 34.11 37.642 33.6038 37.6921C33.0976 37.7423 32.5896 37.6154 32.1664 37.3332L29.4164 35.4984C28.4288 36.0424 27.384 36.4755 26.3012 36.7898L25.6544 40.0304C25.5547 40.529 25.2855 40.9776 24.8925 41.3001C24.4994 41.6225 24.0068 41.7989 23.4984 41.7992H20.5042C19.9958 41.7989 19.5032 41.6225 19.1101 41.3001C18.7171 40.9776 18.4478 40.529 18.3482 40.0304L17.6992 36.7898C16.6164 36.4754 15.5717 36.0423 14.584 35.4984L11.834 37.3332C11.4108 37.6154 10.9028 37.7423 10.3966 37.6921C9.89042 37.642 9.41723 37.418 9.0576 37.0582L6.9412 34.9418C6.58145 34.5822 6.35744 34.109 6.3073 33.6028C6.25716 33.0966 6.38399 32.5886 6.6662 32.1654L8.501 29.4154C7.9571 28.4278 7.524 27.383 7.2096 26.3002L3.969 25.6534C3.47008 25.5537 3.02116 25.2841 2.69865 24.8906C2.37614 24.4971 2.19999 24.004 2.2002 23.4952V20.5032C2.2005 19.9948 2.37688 19.5022 2.69935 19.1092C3.02181 18.7161 3.47045 18.4469 3.969 18.3472L7.2096 17.6982C7.5264 16.6048 7.962 15.562 8.501 14.583L6.6662 11.833C6.38399 11.4098 6.25716 10.9019 6.3073 10.3957C6.35744 9.88945 6.58145 9.41626 6.9412 9.05662L9.0576 6.94022C9.41737 6.57992 9.89098 6.35557 10.3977 6.30542C10.9044 6.25528 11.4128 6.38244 11.8362 6.66522L14.5862 8.50002C15.5739 7.95612 16.6186 7.52303 17.7014 7.20862L18.3482 3.96802ZM28.6002 21.9992C28.6002 23.7496 27.9048 25.4284 26.6671 26.6661C25.4294 27.9039 23.7506 28.5992 22.0002 28.5992C20.2498 28.5992 18.571 27.9039 17.3333 26.6661C16.0956 25.4284 15.4002 23.7496 15.4002 21.9992C15.4002 20.2488 16.0956 18.5701 17.3333 17.3323C18.571 16.0946 20.2498 15.3992 22.0002 15.3992C23.7506 15.3992 25.4294 16.0946 26.6671 17.3323C27.9048 18.5701 28.6002 20.2488 28.6002 21.9992Z" fill="white"/>
</svg>
