<svg width="43" height="37" viewBox="0 0 43 37" fill="none" xmlns="http://www.w3.org/2000/svg">
<path d="M18.4883 18.8507C19.1863 17.3169 20.1797 15.9356 21.4116 14.7858C22.6435 13.6359 24.0898 12.74 25.668 12.1493C27.2462 11.5585 28.9253 11.2845 30.6095 11.3427C32.2936 11.401 33.9498 11.7905 35.4833 12.489C37.0171 13.187 38.3984 14.1803 39.5482 15.4122C40.6981 16.6441 41.594 18.0905 42.1847 19.6687C42.7755 21.2469 43.0495 22.926 42.9913 24.6101C42.933 26.2942 42.5435 27.9504 41.845 29.484C40.8285 31.7281 39.1859 33.6311 37.1143 34.9644C35.0427 36.2978 32.6303 37.0048 30.1667 37.0006C25.2167 37.0006 20.6883 34.1406 18.5617 29.6673H0.833344V26.0007C0.943344 23.9107 2.37334 22.2057 5.12334 20.8307C7.87334 19.4557 11.32 18.7407 15.5 18.6673C16.545 18.6673 17.535 18.759 18.4883 18.8507ZM15.5 0.333984C17.5533 0.388984 19.2767 1.10398 20.6517 2.47898C22.0267 3.85398 22.705 5.57732 22.705 7.66732C22.705 9.75732 22.0267 11.4806 20.6517 12.8556C19.2767 14.2306 17.5533 14.909 15.5 14.909C13.4467 14.909 11.7233 14.2306 10.3483 12.8556C8.97334 11.4806 8.29501 9.75732 8.29501 7.66732C8.29501 5.57732 8.97334 3.85398 10.3483 2.47898C11.7233 1.10398 13.4467 0.388984 15.5 0.333984ZM30.1667 33.334C32.5978 33.334 34.9294 32.3682 36.6485 30.6491C38.3676 28.93 39.3333 26.5985 39.3333 24.1673C39.3333 21.7362 38.3676 19.4046 36.6485 17.6855C34.9294 15.9664 32.5978 15.0007 30.1667 15.0007C27.7355 15.0007 25.4039 15.9664 23.6849 17.6855C21.9658 19.4046 21 21.7362 21 24.1673C21 26.5985 21.9658 28.93 23.6849 30.6491C25.4039 32.3682 27.7355 33.334 30.1667 33.334ZM28.3333 18.6673H31.0833V23.8373L35.5567 26.4223L34.1817 28.8057L28.3333 25.4323V18.6673Z" fill="white"/>
</svg>
