<svg width="30" height="30" viewBox="0 0 30 30" fill="none" xmlns="http://www.w3.org/2000/svg">
<path fill-rule="evenodd" clip-rule="evenodd" d="M23.0568 21.2344C24.0146 19.9321 24.5221 18.4193 24.5193 16.875C24.5193 12.3875 20.3222 8.75001 15.1443 8.75001C13.2931 8.75001 11.5674 9.21501 10.1143 10.0169C9.1472 10.0639 8.19 10.2103 7.26282 10.4531C8.27326 9.51948 9.49418 8.77561 10.8499 8.26763C12.2056 7.75965 13.6673 7.49838 15.1443 7.50001C21.1183 7.50001 25.9616 11.6975 25.9616 16.875C25.9634 18.1551 25.6619 19.4218 25.0758 20.5968C24.4896 21.7717 23.6314 22.8299 22.5542 23.7056C22.8289 22.9163 23.0013 22.0888 23.0568 21.2344Z" fill="white"/>
<path fill-rule="evenodd" clip-rule="evenodd" d="M24.471 21.6269C23.9488 22.395 23.3034 23.0949 22.5542 23.7056C22.8289 22.9163 23.0013 22.0888 23.0568 21.2344C24.0146 19.9321 24.5221 18.4194 24.5193 16.875C24.5193 12.3875 20.3222 8.75001 15.1443 8.75001C13.2931 8.75001 11.5674 9.21501 10.1143 10.0169C9.1472 10.0639 8.19 10.2103 7.26282 10.4531C7.96758 9.80378 8.77516 9.24445 9.66138 8.79189C11.3226 7.94354 13.2162 7.49738 15.1443 7.50001C21.1183 7.50001 25.9616 11.6975 25.9616 16.875C25.965 18.5461 25.4502 20.1873 24.471 21.6269Z" fill="white"/>
<path fill-rule="evenodd" clip-rule="evenodd" d="M21.6346 20.625C21.6346 25.8025 16.7913 30 10.8173 30C4.84327 30 0 25.8025 0 20.625C0 15.4475 4.84327 11.25 10.8173 11.25C16.7913 11.25 21.6346 15.4475 21.6346 20.625ZM10.0962 17.5C9.71363 17.5 9.34677 17.6317 9.07629 17.8661C8.8058 18.1005 8.65385 18.4185 8.65385 18.75C8.65385 19.0815 8.8058 19.3995 9.07629 19.6339C9.34677 19.8683 9.71363 20 10.0962 20V17.5ZM11.5385 16.25V15.625H10.0962V16.25C9.33111 16.25 8.59739 16.5134 8.05642 16.9822C7.51545 17.4511 7.21154 18.087 7.21154 18.75C7.21154 19.413 7.51545 20.0489 8.05642 20.5178C8.59739 20.9866 9.33111 21.25 10.0962 21.25V23.75C9.46875 23.75 8.93438 23.4031 8.73534 22.9169C8.70581 22.8373 8.65817 22.7637 8.59524 22.7004C8.53231 22.6371 8.45537 22.5853 8.36896 22.5482C8.28256 22.5111 8.18845 22.4894 8.0922 22.4844C7.99595 22.4794 7.89951 22.4911 7.80859 22.519C7.71768 22.5468 7.63412 22.5902 7.56288 22.6465C7.49163 22.7028 7.43414 22.7709 7.39381 22.8468C7.35347 22.9227 7.33111 23.0049 7.32804 23.0884C7.32498 23.1719 7.34127 23.2552 7.37596 23.3331C7.57489 23.8206 7.94328 24.2427 8.43044 24.5412C8.91759 24.8397 9.49953 25 10.0962 25V25.625H11.5385V25C12.3035 25 13.0372 24.7366 13.5782 24.2678C14.1192 23.7989 14.4231 23.163 14.4231 22.5C14.4231 21.837 14.1192 21.2011 13.5782 20.7322C13.0372 20.2634 12.3035 20 11.5385 20V17.5C12.1659 17.5 12.7002 17.8469 12.8993 18.3331C12.9288 18.4127 12.9764 18.4863 13.0394 18.5496C13.1023 18.6129 13.1792 18.6647 13.2657 18.7018C13.3521 18.7389 13.4462 18.7606 13.5424 18.7656C13.6387 18.7706 13.7351 18.7589 13.826 18.731C13.9169 18.7032 14.0005 18.6598 14.0717 18.6035C14.143 18.5472 14.2005 18.4791 14.2408 18.4032C14.2811 18.3273 14.3035 18.2451 14.3066 18.1616C14.3096 18.0781 14.2933 17.9948 14.2587 17.9169C14.0597 17.4294 13.6913 17.0073 13.2042 16.7088C12.717 16.4103 12.1351 16.25 11.5385 16.25ZM11.5385 21.25V23.75C11.921 23.75 12.2878 23.6183 12.5583 23.3839C12.8288 23.1495 12.9808 22.8315 12.9808 22.5C12.9808 22.1685 12.8288 21.8505 12.5583 21.6161C12.2878 21.3817 11.921 21.25 11.5385 21.25Z" fill="white"/>
</svg>
