<svg width="38" height="38" viewBox="0 0 38 38" fill="none" xmlns="http://www.w3.org/2000/svg">
<path d="M6.85046 5.26771C10.1994 2.29656 14.523 0.658984 19 0.666038C29.1255 0.666038 37.3333 8.87387 37.3333 18.9994C37.3393 22.7465 36.1916 26.4047 34.0461 29.4769L29.0833 18.9994H33.6666C33.6667 16.0832 32.7974 13.2332 31.1698 10.8134C29.5423 8.3937 27.2303 6.51407 24.5293 5.41466C21.8283 4.31525 18.8609 4.04598 16.0061 4.64124C13.1514 5.23651 10.5388 6.66928 8.50229 8.75654L6.85229 5.26954L6.85046 5.26771ZM31.1495 32.731C27.8005 35.7022 23.4769 37.3398 19 37.3327C8.87446 37.3327 0.666626 29.1249 0.666626 18.9994C0.666626 15.1035 1.88213 11.4919 3.95379 8.52187L8.91663 18.9994H4.33329C4.33324 21.9156 5.20251 24.7656 6.83007 27.1853C8.45763 29.605 10.7696 31.4847 13.4706 32.5841C16.1716 33.6835 19.139 33.9528 21.9938 33.3575C24.8486 32.7622 27.4611 31.3295 29.4976 29.2422L31.1476 32.7292L31.1495 32.731ZM12.5833 22.666H22.6666C22.9097 22.666 23.1429 22.5695 23.3148 22.3976C23.4867 22.2256 23.5833 21.9925 23.5833 21.7494C23.5833 21.5063 23.4867 21.2731 23.3148 21.1012C23.1429 20.9293 22.9097 20.8327 22.6666 20.8327H15.3333C14.1177 20.8327 12.9519 20.3498 12.0924 19.4903C11.2328 18.6307 10.75 17.4649 10.75 16.2494C10.75 15.0338 11.2328 13.868 12.0924 13.0085C12.9519 12.1489 14.1177 11.666 15.3333 11.666H17.1666V9.83271H20.8333V11.666H25.4166V15.3327H15.3333C15.0902 15.3327 14.857 15.4293 14.6851 15.6012C14.5132 15.7731 14.4166 16.0063 14.4166 16.2494C14.4166 16.4925 14.5132 16.7256 14.6851 16.8976C14.857 17.0695 15.0902 17.166 15.3333 17.166H22.6666C23.8822 17.166 25.048 17.6489 25.9075 18.5085C26.7671 19.368 27.25 20.5338 27.25 21.7494C27.25 22.9649 26.7671 24.1307 25.9075 24.9903C25.048 25.8498 23.8822 26.3327 22.6666 26.3327H20.8333V28.166H17.1666V26.3327H12.5833V22.666Z" fill="white"/>
</svg>
