<svg width="44" height="44" viewBox="0 0 44 44" fill="none" xmlns="http://www.w3.org/2000/svg">
<path d="M7.33333 7.33398V11.0007H36.6667V7.33398M7.33333 12.834L5.5 22.0007V25.6673H7.33333V36.6673H23.8333C23.7417 36.044 23.6867 35.4023 23.6867 34.7423C23.6867 32.5057 24.3833 30.3057 25.6667 28.4723V25.6673H28.49C30.3233 24.439 32.4683 23.7607 34.6683 23.7607C35.97 23.7607 37.2717 23.999 38.5 24.4573V22.0007L36.6667 12.834M11 25.6673H22V33.0007H11M33 27.5007V33.0007H27.5V36.6673H33V42.1673H36.6667V36.6673H42.1667V33.0007H36.6667V27.5007" fill="white"/>
</svg>
