<svg width="35" height="39" viewBox="0 0 35 39" fill="none" xmlns="http://www.w3.org/2000/svg">
<path d="M29.3333 14.8333L16.5 2L0 18.5H3.66667V31.3333C3.66667 32.3058 4.05298 33.2384 4.74061 33.9261C5.42824 34.6137 6.36087 35 7.33333 35H18.3333" stroke="white" stroke-width="3.66667" stroke-linecap="round" stroke-linejoin="round"/>
<path d="M11 35.0007V24.0007C11 23.0282 11.3863 22.0956 12.0739 21.4079C12.7616 20.7203 13.6942 20.334 14.6667 20.334H18.3333C19.0428 20.334 19.7047 20.5357 20.2657 20.884M33 24.0007H28.4167C27.6873 24.0007 26.9878 24.2904 26.4721 24.8061C25.9564 25.3218 25.6667 26.0213 25.6667 26.7507C25.6667 27.48 25.9564 28.1795 26.4721 28.6952C26.9878 29.2109 27.6873 29.5007 28.4167 29.5007H30.25C30.9793 29.5007 31.6788 29.7904 32.1945 30.3061C32.7103 30.8218 33 31.5213 33 32.2507C33 32.98 32.7103 33.6795 32.1945 34.1952C31.6788 34.7109 30.9793 35.0007 30.25 35.0007H25.6667M29.3333 35.0007V36.834M29.3333 22.1673V24.0007" stroke="white" stroke-width="3.66667" stroke-linecap="round" stroke-linejoin="round"/>
</svg>
