<svg width="44" height="44" viewBox="0 0 44 44" fill="none" xmlns="http://www.w3.org/2000/svg">
<path d="M27.5 8.25H16.5L12.4266 2.13984C11.8164 1.22031 12.4695 0 13.5695 0H30.4305C31.5305 0 32.1836 1.22031 31.5734 2.13984L27.5 8.25ZM16.5 11H27.5C27.8266 11.2148 28.1961 11.4555 28.6172 11.7219C33.4898 14.8414 44 21.5617 44 35.75C44 40.3047 40.3047 44 35.75 44H8.25C3.69531 44 0 40.3047 0 35.75C0 21.5617 10.5102 14.8414 15.3828 11.7219C15.7953 11.4555 16.1734 11.2148 16.5 11ZM23.7188 18.5625C23.7188 17.6172 22.9453 16.8438 22 16.8438C21.0547 16.8438 20.2812 17.6172 20.2812 18.5625V19.7656C19.6281 19.9117 18.975 20.1437 18.3734 20.4961C17.1789 21.2094 16.1477 22.4555 16.1562 24.2687C16.1648 26.0133 17.1875 27.1133 18.2789 27.7664C19.2242 28.3336 20.4016 28.6945 21.3383 28.9695L21.4844 29.0125C22.5672 29.3391 23.3578 29.5969 23.8906 29.932C24.3289 30.207 24.3891 30.3961 24.3977 30.6367C24.4062 31.0664 24.243 31.3242 23.8906 31.5391C23.4609 31.8055 22.782 31.9688 22.0516 31.943C21.0977 31.9086 20.2039 31.6078 19.0352 31.2125C18.8375 31.1438 18.6313 31.075 18.4164 31.0062C17.5141 30.7055 16.543 31.1953 16.2422 32.0891C15.9414 32.9828 16.4312 33.9625 17.325 34.2633C17.4883 34.3148 17.6687 34.375 17.8492 34.4437C18.5625 34.693 19.3875 34.9766 20.2727 35.1656V36.4375C20.2727 37.3828 21.0461 38.1562 21.9914 38.1562C22.9367 38.1562 23.7102 37.3828 23.7102 36.4375V35.2516C24.3977 35.1055 25.0852 34.8648 25.7039 34.4781C26.9328 33.7133 27.8609 32.407 27.8352 30.6109C27.8094 28.8664 26.8297 27.7406 25.7211 27.0359C24.7328 26.4172 23.4953 26.0391 22.5328 25.7469L22.4727 25.7297C21.3727 25.3945 20.5906 25.1539 20.0406 24.8273C19.5938 24.5609 19.5852 24.4063 19.5852 24.2516C19.5852 23.9336 19.7055 23.693 20.118 23.4523C20.582 23.1773 21.2867 23.0141 21.9656 23.0227C22.7906 23.0312 23.7016 23.2117 24.6469 23.4695C25.5664 23.7102 26.5031 23.1687 26.7523 22.2492C27.0016 21.3297 26.4516 20.393 25.532 20.1437C24.9734 19.9977 24.3547 19.8516 23.7188 19.7398V18.5625Z" fill="white"/>
</svg>
