<svg width="35" height="35" viewBox="0 0 35 35" fill="none" xmlns="http://www.w3.org/2000/svg">
<path d="M17.4998 2.91602C15.5847 2.91602 13.6884 3.29322 11.919 4.02611C10.1497 4.75899 8.54205 5.83319 7.18786 7.18738C4.45296 9.92228 2.9165 13.6316 2.9165 17.4993C2.9165 21.3671 4.45296 25.0764 7.18786 27.8113C8.54205 29.1655 10.1497 30.2397 11.919 30.9726C13.6884 31.7055 15.5847 32.0827 17.4998 32.0827C21.3676 32.0827 25.0769 30.5462 27.8118 27.8113C30.5467 25.0764 32.0832 21.3671 32.0832 17.4993C32.0832 15.5842 31.706 13.6879 30.9731 11.9185C30.2402 10.1492 29.166 8.54156 27.8118 7.18738C26.4576 5.83319 24.85 4.75899 23.0806 4.02611C21.3113 3.29322 19.4149 2.91602 17.4998 2.91602ZM17.4998 29.166C14.4056 29.166 11.4382 27.9369 9.25026 25.7489C7.06233 23.561 5.83317 20.5935 5.83317 17.4993C5.83317 14.4052 7.06233 11.4377 9.25026 9.24977C11.4382 7.06185 14.4056 5.83268 17.4998 5.83268C20.594 5.83268 23.5615 7.06185 25.7494 9.24977C27.9373 11.4377 29.1665 14.4052 29.1665 17.4993C29.1665 20.5935 27.9373 23.561 25.7494 25.7489C23.5615 27.9369 20.594 29.166 17.4998 29.166ZM12.3957 16.041C11.8155 16.041 11.2591 15.8105 10.8489 15.4003C10.4386 14.9901 10.2082 14.4337 10.2082 13.8535C10.2082 13.2734 10.4386 12.717 10.8489 12.3067C11.2591 11.8965 11.8155 11.666 12.3957 11.666C12.9758 11.666 13.5322 11.8965 13.9425 12.3067C14.3527 12.717 14.5832 13.2734 14.5832 13.8535C14.5832 14.4337 14.3527 14.9901 13.9425 15.4003C13.5322 15.8105 12.9758 16.041 12.3957 16.041ZM24.7915 13.8535C24.7915 14.4337 24.561 14.9901 24.1508 15.4003C23.7406 15.8105 23.1842 16.041 22.604 16.041C22.0238 16.041 21.4674 15.8105 21.0572 15.4003C20.647 14.9901 20.4165 14.4337 20.4165 13.8535C20.4165 13.2734 20.647 12.717 21.0572 12.3067C21.4674 11.8965 22.0238 11.666 22.604 11.666C23.1842 11.666 23.7406 11.8965 24.1508 12.3067C24.561 12.717 24.7915 13.2734 24.7915 13.8535ZM23.3332 20.416V23.3327H11.6665V20.416H23.3332Z" fill="#F8F8F8"/>
</svg>
