<svg width="44" height="44" viewBox="0 0 44 44" fill="none" xmlns="http://www.w3.org/2000/svg">
<rect width="44" height="44" fill="#C22014"/>
<path d="M36.6667 21.9993V10.5392C36.6668 10.3945 36.6384 10.2512 36.583 10.1174C36.5276 9.98374 36.4464 9.86228 36.344 9.76002L30.5727 3.98868C30.3666 3.78233 30.087 3.66627 29.7953 3.66602H8.43334C8.14161 3.66602 7.86182 3.78191 7.65553 3.9882C7.44924 4.19449 7.33334 4.47428 7.33334 4.76602V39.2327C7.33334 39.5244 7.44924 39.8042 7.65553 40.0105C7.86182 40.2168 8.14161 40.3327 8.43334 40.3327H23.8333M14.6667 18.3327H29.3333M14.6667 10.9993H22M14.6667 25.666H20.1667" stroke="white" stroke-width="2.75" stroke-linecap="round" stroke-linejoin="round"/>
<path d="M29.3333 3.66602V9.89935C29.3333 10.1911 29.4492 10.4709 29.6555 10.6772C29.8618 10.8835 30.1416 10.9993 30.4333 10.9993H36.6667M36.652 27.7285L41.338 28.9183C41.8257 29.043 42.1685 29.4867 42.1538 29.989C41.8385 40.5453 35.75 42.166 35.75 42.166C35.75 42.166 29.6615 40.5453 29.3462 29.989C29.3405 29.7445 29.4182 29.5053 29.5664 29.3107C29.7147 29.1161 29.9247 28.9778 30.162 28.9183L34.848 27.7285C35.4402 27.5782 36.0598 27.5782 36.652 27.7285Z" stroke="white" stroke-width="2.75" stroke-linecap="round" stroke-linejoin="round"/>
</svg>
