<svg width="50" height="52" viewBox="0 0 50 52" fill="none" xmlns="http://www.w3.org/2000/svg">
<g clip-path="url(#clip0_588_343)">
<path d="M32.8125 0.294922L50 9.15031V28.8988L46.875 27.2888V12.7478L34.375 19.1881V25.6787L31.25 27.2888V19.1881L18.75 12.7478V18.4585L15.625 16.8485V9.15031L32.8125 0.294922ZM32.8125 16.3956L37.1338 14.1566L25.8301 7.48992L20.6787 10.1566L32.8125 16.3956ZM40.5029 12.4459L44.9463 10.1566L32.8125 3.89242L29.1748 5.77922L40.5029 12.4459ZM28.125 28.8988L25 30.5089V30.4837L15.625 35.3139V46.7605L25 41.9052V45.5278L14.0625 51.1631L0 43.8926V26.8862L14.0625 19.6409L28.125 26.8862V28.8988ZM12.5 46.7605V35.3139L3.125 30.4837V41.9052L12.5 46.7605ZM14.0625 32.5215L23.0713 27.8925L14.0625 23.2384L5.05371 27.8925L14.0625 32.5215ZM28.125 32.4963L39.0625 26.8611L50 32.4963V45.7542L39.0625 51.3895L28.125 45.7542V32.4963ZM37.5 46.987V39.314L31.25 36.0938V43.7668L37.5 46.987ZM46.875 43.7668V36.0938L40.625 39.314V46.987L46.875 43.7668ZM39.0625 36.5215L44.9463 33.4775L39.0625 30.4586L33.1787 33.4775L39.0625 36.5215Z" fill="white"/>
</g>
<defs>
<clipPath id="clip0_588_343">
<rect width="50" height="51.5222" fill="white" transform="translate(0 0.244141)"/>
</clipPath>
</defs>
</svg>
