<svg width="50" height="50" viewBox="0 0 50 50" fill="none" xmlns="http://www.w3.org/2000/svg">
<path fill-rule="evenodd" clip-rule="evenodd" d="M38.4278 35.3906C40.0241 33.2202 40.87 30.6989 40.8653 28.125C40.8653 20.6458 33.8701 14.5833 25.2403 14.5833C22.155 14.5833 19.2788 15.3583 16.8569 16.6948C15.2451 16.7732 13.6498 17.0172 12.1045 17.4219C13.7886 15.8658 15.8234 14.626 18.083 13.7794C20.3425 12.9328 22.7786 12.4973 25.2403 12.5C35.197 12.5 43.2692 19.4958 43.2692 28.125C43.2721 30.2584 42.7696 32.3697 41.7927 34.328C40.8159 36.2862 39.3854 38.0498 37.5901 39.5094C38.048 38.1938 38.3353 36.8146 38.4278 35.3906Z" fill="white"/>
<path fill-rule="evenodd" clip-rule="evenodd" d="M40.7848 36.0448C39.9145 37.3249 38.8389 38.4914 37.5901 39.5094C38.048 38.1938 38.3353 36.8146 38.4278 35.3906C40.0241 33.2202 40.87 30.6989 40.8653 28.125C40.8653 20.6459 33.8701 14.5834 25.2403 14.5834C22.155 14.5834 19.2788 15.3584 16.8569 16.6948C15.2451 16.7732 13.6498 17.0172 12.1045 17.4219C13.2791 16.3396 14.6251 15.4074 16.1021 14.6531C18.8708 13.2392 22.0267 12.4956 25.2403 12.5C35.197 12.5 43.2692 19.4959 43.2692 28.125C43.2748 30.9102 42.4168 33.6455 40.7848 36.0448Z" fill="white"/>
<path fill-rule="evenodd" clip-rule="evenodd" d="M36.0577 34.375C36.0577 43.0042 27.9856 50 18.0288 50C8.07211 50 0 43.0042 0 34.375C0 25.7458 8.07211 18.75 18.0288 18.75C27.9856 18.75 36.0577 25.7458 36.0577 34.375ZM16.8269 29.1667C16.1894 29.1667 15.578 29.3862 15.1271 29.7769C14.6763 30.1676 14.4231 30.6975 14.4231 31.25C14.4231 31.8025 14.6763 32.3324 15.1271 32.7231C15.578 33.1138 16.1894 33.3333 16.8269 33.3333V29.1667ZM19.2308 27.0833V26.0417H16.8269V27.0833C15.5518 27.0833 14.329 27.5223 13.4274 28.3037C12.5258 29.0851 12.0192 30.1449 12.0192 31.25C12.0192 32.3551 12.5258 33.4149 13.4274 34.1963C14.329 34.9777 15.5518 35.4167 16.8269 35.4167V39.5833C15.7813 39.5833 14.8906 39.0052 14.5589 38.1948C14.5097 38.0622 14.4303 37.9395 14.3254 37.834C14.2205 37.7285 14.0923 37.6422 13.9483 37.5804C13.8043 37.5186 13.6474 37.4824 13.487 37.474C13.3266 37.4656 13.1659 37.4852 13.0143 37.5316C12.8628 37.578 12.7235 37.6503 12.6048 37.7442C12.4861 37.838 12.3902 37.9516 12.323 38.0781C12.2558 38.2046 12.2185 38.3415 12.2134 38.4807C12.2083 38.6199 12.2355 38.7586 12.2933 38.8885C12.6248 39.701 13.2388 40.4044 14.0507 40.902C14.8626 41.3995 15.8326 41.6667 16.8269 41.6667V42.7083H19.2308V41.6667C20.5058 41.6667 21.7287 41.2277 22.6303 40.4463C23.5319 39.6649 24.0385 38.6051 24.0385 37.5C24.0385 36.3949 23.5319 35.3351 22.6303 34.5537C21.7287 33.7723 20.5058 33.3333 19.2308 33.3333V29.1667C20.2764 29.1667 21.1671 29.7448 21.4988 30.5552C21.548 30.6878 21.6274 30.8105 21.7323 30.916C21.8372 31.0215 21.9654 31.1078 22.1094 31.1696C22.2534 31.2314 22.4103 31.2676 22.5707 31.276C22.7311 31.2844 22.8918 31.2648 23.0434 31.2184C23.1949 31.172 23.3342 31.0997 23.4529 31.0058C23.5716 30.912 23.6675 30.7984 23.7347 30.6719C23.8019 30.5454 23.8392 30.4085 23.8443 30.2693C23.8494 30.1301 23.8222 29.9914 23.7644 29.8615C23.4329 29.049 22.8189 28.3456 22.007 27.848C21.195 27.3505 20.2251 27.0833 19.2308 27.0833ZM19.2308 35.4167V39.5833C19.8683 39.5833 20.4797 39.3638 20.9305 38.9731C21.3814 38.5824 21.6346 38.0525 21.6346 37.5C21.6346 36.9475 21.3814 36.4176 20.9305 36.0269C20.4797 35.6362 19.8683 35.4167 19.2308 35.4167Z" fill="white"/>
</svg>
