<svg width="35" height="35" viewBox="0 0 35 35" fill="none" xmlns="http://www.w3.org/2000/svg">
<path d="M29.1665 17.4993C29.1665 14.4052 27.9373 11.4377 25.7494 9.24977C23.5615 7.06185 20.594 5.83268 17.4998 5.83268C14.4056 5.83268 11.4382 7.06185 9.25026 9.24977C7.06233 11.4377 5.83317 14.4052 5.83317 17.4993C5.83317 20.5935 7.06233 23.561 9.25026 25.7489C11.4382 27.9369 14.4056 29.166 17.4998 29.166C20.594 29.166 23.5615 27.9369 25.7494 25.7489C27.9373 23.561 29.1665 20.5935 29.1665 17.4993ZM32.0832 17.4993C32.0832 21.3671 30.5467 25.0764 27.8118 27.8113C25.0769 30.5462 21.3676 32.0827 17.4998 32.0827C15.5847 32.0827 13.6884 31.7055 11.919 30.9726C10.1497 30.2397 8.54205 29.1655 7.18786 27.8113C4.45296 25.0764 2.9165 21.3671 2.9165 17.4993C2.9165 13.6316 4.45296 9.92228 7.18786 7.18738C9.92277 4.45247 13.6321 2.91602 17.4998 2.91602C19.4149 2.91602 21.3113 3.29322 23.0806 4.02611C24.85 4.75899 26.4576 5.83319 27.8118 7.18738C29.166 8.54156 30.2402 10.1492 30.9731 11.9185C31.706 13.6879 32.0832 15.5842 32.0832 17.4993ZM22.604 11.666C23.7707 11.666 24.7915 12.6868 24.7915 13.8535C24.7915 15.0202 23.7707 16.041 22.604 16.041C21.4373 16.041 20.4165 15.0202 20.4165 13.8535C20.4165 12.6868 21.4373 11.666 22.604 11.666ZM14.5832 13.8535C14.5832 15.0202 13.5623 16.041 12.3957 16.041C11.229 16.041 10.2082 15.0202 10.2082 13.8535C10.2082 12.6868 11.229 11.666 12.3957 11.666C13.5623 11.666 14.5832 12.6868 14.5832 13.8535ZM17.4998 20.416C20.0519 20.416 22.2978 21.466 23.6103 23.0556L21.5394 25.1264C20.8832 24.0618 19.3228 23.3327 17.4998 23.3327C15.6769 23.3327 14.1165 24.0618 13.4603 25.1264L11.3894 23.0556C12.7019 21.466 14.9478 20.416 17.4998 20.416Z" fill="#F8F8F8"/>
</svg>
