<svg width="30" height="30" viewBox="0 0 30 30" fill="none" xmlns="http://www.w3.org/2000/svg">
<path d="M27.1875 15C27.1875 11.7677 25.9035 8.66774 23.6179 6.38214C21.3323 4.09654 18.2323 2.8125 15 2.8125C11.7677 2.8125 8.66774 4.09654 6.38214 6.38214C4.09654 8.66774 2.8125 11.7677 2.8125 15C2.8125 18.2323 4.09654 21.3323 6.38214 23.6179C8.66774 25.9035 11.7677 27.1875 15 27.1875C18.2323 27.1875 21.3323 25.9035 23.6179 23.6179C25.9035 21.3323 27.1875 18.2323 27.1875 15ZM0 15C0 11.0218 1.58035 7.20644 4.3934 4.3934C7.20644 1.58035 11.0218 0 15 0C18.9782 0 22.7936 1.58035 25.6066 4.3934C28.4196 7.20644 30 11.0218 30 15C30 18.9782 28.4196 22.7936 25.6066 25.6066C22.7936 28.4196 18.9782 30 15 30C11.0218 30 7.20644 28.4196 4.3934 25.6066C1.58035 22.7936 0 18.9782 0 15ZM10.4062 18.6387C11.2969 19.5996 12.8203 20.625 15 20.625C17.1797 20.625 18.7031 19.5996 19.5938 18.6387C20.1211 18.0703 21.0117 18.0293 21.5801 18.5566C22.1484 19.084 22.1895 19.9746 21.6621 20.543C20.373 21.9375 18.1465 23.4375 15.0059 23.4375C11.8652 23.4375 9.63281 21.9434 8.34961 20.543C7.82227 19.9746 7.85742 19.084 8.43164 18.5566C9.00586 18.0293 9.89062 18.0645 10.418 18.6387H10.4062ZM8.46094 12.1875C8.46094 11.6902 8.65848 11.2133 9.01011 10.8617C9.36174 10.51 9.83866 10.3125 10.3359 10.3125C10.8332 10.3125 11.3101 10.51 11.6618 10.8617C12.0134 11.2133 12.2109 11.6902 12.2109 12.1875C12.2109 12.6848 12.0134 13.1617 11.6618 13.5133C11.3101 13.865 10.8332 14.0625 10.3359 14.0625C9.83866 14.0625 9.36174 13.865 9.01011 13.5133C8.65848 13.1617 8.46094 12.6848 8.46094 12.1875ZM19.7109 10.3125C20.2082 10.3125 20.6851 10.51 21.0368 10.8617C21.3884 11.2133 21.5859 11.6902 21.5859 12.1875C21.5859 12.6848 21.3884 13.1617 21.0368 13.5133C20.6851 13.865 20.2082 14.0625 19.7109 14.0625C19.2137 14.0625 18.7367 13.865 18.3851 13.5133C18.0335 13.1617 17.8359 12.6848 17.8359 12.1875C17.8359 11.6902 18.0335 11.2133 18.3851 10.8617C18.7367 10.51 19.2137 10.3125 19.7109 10.3125Z" fill="#F8F8F8"/>
</svg>
