<svg width="40" height="40" viewBox="0 0 40 40" fill="none" xmlns="http://www.w3.org/2000/svg">
<path d="M20 40C25.3043 40 30.3914 37.8929 34.1421 34.1421C37.8929 30.3914 40 25.3043 40 20C40 14.6957 37.8929 9.60859 34.1421 5.85786C30.3914 2.10714 25.3043 0 20 0C14.6957 0 9.60859 2.10714 5.85786 5.85786C2.10714 9.60859 0 14.6957 0 20C0 25.3043 2.10714 30.3914 5.85786 34.1421C9.60859 37.8929 14.6957 40 20 40ZM12.8203 25.4297C14.2188 27.0469 16.6094 28.75 20 28.75C23.3906 28.75 25.7812 27.0469 27.1797 25.4297C27.6328 24.9062 28.4219 24.8516 28.9453 25.3047C29.4688 25.7578 29.5234 26.5469 29.0703 27.0703C27.3281 29.0703 24.3047 31.25 20 31.25C15.6953 31.25 12.6719 29.0703 10.9297 27.0703C10.4766 26.5469 10.5312 25.7578 11.0547 25.3047C11.5781 24.8516 12.3672 24.9062 12.8203 25.4297ZM11.2812 16.25C11.2812 15.587 11.5446 14.9511 12.0135 14.4822C12.4823 14.0134 13.1182 13.75 13.7812 13.75C14.4443 13.75 15.0802 14.0134 15.549 14.4822C16.0179 14.9511 16.2812 15.587 16.2812 16.25C16.2812 16.913 16.0179 17.5489 15.549 18.0178C15.0802 18.4866 14.4443 18.75 13.7812 18.75C13.1182 18.75 12.4823 18.4866 12.0135 18.0178C11.5446 17.5489 11.2812 16.913 11.2812 16.25ZM26.2812 13.75C26.9443 13.75 27.5802 14.0134 28.049 14.4822C28.5179 14.9511 28.7812 15.587 28.7812 16.25C28.7812 16.913 28.5179 17.5489 28.049 18.0178C27.5802 18.4866 26.9443 18.75 26.2812 18.75C25.6182 18.75 24.9823 18.4866 24.5135 18.0178C24.0446 17.5489 23.7812 16.913 23.7812 16.25C23.7812 15.587 24.0446 14.9511 24.5135 14.4822C24.9823 14.0134 25.6182 13.75 26.2812 13.75Z" fill="#C22014"/>
</svg>
