<svg width="31" height="32" viewBox="0 0 31 32" fill="none" xmlns="http://www.w3.org/2000/svg">
<path d="M15.2106 0.5625C12.2842 0.5625 9.42356 1.46789 6.99036 3.16419C4.55716 4.86048 2.66072 7.27149 1.54084 10.0923C0.420962 12.9132 0.12795 16.0171 0.698859 19.0117C1.26977 22.0063 2.67896 24.757 4.74822 26.916C6.81749 29.0749 9.45389 30.5452 12.324 31.1409C15.1942 31.7365 18.1692 31.4308 20.8728 30.2624C23.5764 29.094 25.8873 27.1153 27.5131 24.5766C29.1389 22.0379 30.0067 19.0532 30.0067 16C29.9991 11.9081 28.4379 7.9861 25.6647 5.09271C22.8915 2.19931 19.1325 0.570346 15.2106 0.5625ZM15.2106 29.0625C12.7344 29.0625 10.3139 28.2964 8.25502 26.8611C6.19616 25.4257 4.59147 23.3857 3.64388 20.9988C2.69629 18.6119 2.44836 15.9855 2.93144 13.4516C3.41451 10.9178 4.6069 8.59024 6.35782 6.76342C8.10874 4.93659 10.3395 3.69251 12.7681 3.18849C15.1967 2.68447 17.714 2.94315 20.0017 3.93182C22.2894 4.92049 24.2447 6.59475 25.6204 8.74286C26.9961 10.891 27.7303 13.4165 27.7303 16C27.7266 19.4632 26.4063 22.7834 24.0592 25.2322C21.7122 27.6811 18.5299 29.0586 15.2106 29.0625ZM16.9178 23.7188C16.9178 24.071 16.8177 24.4154 16.6301 24.7084C16.4425 25.0013 16.1759 25.2296 15.8639 25.3644C15.552 25.4992 15.2087 25.5345 14.8775 25.4658C14.5464 25.397 14.2422 25.2274 14.0034 24.9783C13.7646 24.7292 13.6021 24.4118 13.5362 24.0663C13.4703 23.7207 13.5041 23.3626 13.6333 23.0371C13.7625 22.7116 13.9814 22.4334 14.2621 22.2377C14.5429 22.042 14.8729 21.9375 15.2106 21.9375C15.6634 21.9375 16.0976 22.1252 16.4178 22.4592C16.738 22.7933 16.9178 23.2463 16.9178 23.7188ZM23.9887 15.1539C24.2024 15.379 24.3223 15.6831 24.3223 16C24.3223 16.3169 24.2024 16.621 23.9887 16.8461C23.7711 17.0656 23.4803 17.1883 23.1777 17.1883C22.8751 17.1883 22.5843 17.0656 22.3668 16.8461L20.9014 15.3023L19.436 16.8461C19.2185 17.0656 18.9277 17.1883 18.6251 17.1883C18.3225 17.1883 18.0317 17.0656 17.8141 16.8461C17.6004 16.621 17.4805 16.3169 17.4805 16C17.4805 15.6831 17.6004 15.379 17.8141 15.1539L19.2938 13.625L17.8141 12.0961C17.6327 11.8654 17.5399 11.5725 17.5539 11.2743C17.568 10.9762 17.6878 10.6942 17.8901 10.4831C18.0924 10.2721 18.3627 10.1471 18.6484 10.1324C18.9341 10.1178 19.2149 10.2145 19.436 10.4039L20.9014 11.9477L22.3668 10.4039C22.5879 10.2145 22.8687 10.1178 23.1544 10.1324C23.4401 10.1471 23.7104 10.2721 23.9127 10.4831C24.115 10.6942 24.2348 10.9762 24.2489 11.2743C24.2629 11.5725 24.1701 11.8654 23.9887 12.0961L22.509 13.625L23.9887 15.1539ZM12.6071 12.0961L11.1275 13.625L12.6071 15.1539C12.8208 15.379 12.9407 15.6831 12.9407 16C12.9407 16.3169 12.8208 16.621 12.6071 16.8461C12.3895 17.0656 12.0988 17.1883 11.7961 17.1883C11.4935 17.1883 11.2027 17.0656 10.9852 16.8461L9.51982 15.3023L8.05444 16.8461C7.83689 17.0656 7.54612 17.1883 7.2435 17.1883C6.94089 17.1883 6.65012 17.0656 6.43257 16.8461C6.21884 16.621 6.09894 16.3169 6.09894 16C6.09894 15.6831 6.21884 15.379 6.43257 15.1539L7.91217 13.625L6.43257 12.0961C6.25107 11.8654 6.15832 11.5725 6.17236 11.2743C6.18639 10.9762 6.3062 10.6942 6.50849 10.4831C6.71078 10.2721 6.98109 10.1471 7.26682 10.1324C7.55256 10.1178 7.8333 10.2145 8.05444 10.4039L9.51982 11.9477L10.9852 10.4039C11.2063 10.2145 11.4871 10.1178 11.7728 10.1324C12.0586 10.1471 12.3289 10.2721 12.5311 10.4831C12.7334 10.6942 12.8533 10.9762 12.8673 11.2743C12.8813 11.5725 12.7886 11.8654 12.6071 12.0961Z" fill="#545454"/>
</svg>
