<svg width="38" height="36" viewBox="0 0 38 36" fill="none" xmlns="http://www.w3.org/2000/svg">
<path d="M4.33332 35.4994H6.16666V11.666H4.33332C3.36086 11.666 2.42823 12.0523 1.7406 12.74C1.05296 13.4276 0.666656 14.3602 0.666656 15.3327V31.8327C0.666656 32.8051 1.05296 33.7378 1.7406 34.4254C2.42823 35.113 3.36086 35.4994 4.33332 35.4994ZM33.6667 11.666H20.8333L22.8903 5.49135C23.0739 4.94028 23.1239 4.35348 23.0362 3.7793C22.9485 3.20512 22.7257 2.65997 22.3861 2.18877C22.0465 1.71757 21.5998 1.33379 21.0828 1.06905C20.5658 0.804303 19.9933 0.666166 19.4125 0.666016H19L9.83332 10.6357V35.4994H30L37.172 19.74L37.3333 18.9994V15.3327C37.3333 14.3602 36.947 13.4276 36.2594 12.74C35.5717 12.0523 34.6391 11.666 33.6667 11.666Z" fill="white"/>
</svg>
