<svg width="44" height="44" viewBox="0 0 44 44" fill="none" xmlns="http://www.w3.org/2000/svg">
<path d="M19.2493 25.666H32.9993V21.9994H22.916L19.2493 25.666ZM10.9993 25.666H15.491L26.3077 14.941C26.491 14.7577 26.5827 14.5285 26.5827 14.2535C26.5827 13.9785 26.491 13.7494 26.3077 13.566L23.0993 10.3577C22.916 10.1744 22.6868 10.0827 22.4118 10.0827C22.1369 10.0827 21.9077 10.1744 21.7243 10.3577L10.9993 21.1744V25.666ZM3.66602 40.3327V7.33269C3.66602 6.32435 4.02535 5.46085 4.74402 4.74219C5.46268 4.02352 6.32557 3.6648 7.33268 3.66602H36.666C37.6744 3.66602 38.5378 4.02535 39.2565 4.74402C39.9752 5.46269 40.3339 6.32557 40.3327 7.33269V29.3327C40.3327 30.341 39.9734 31.2045 39.2547 31.9232C38.536 32.6419 37.6731 33.0006 36.666 32.9994H10.9993L3.66602 40.3327Z" fill="white"/>
</svg>
